<svg width="42" height="42" viewBox="0 0 42 42" fill="none" xmlns="http://www.w3.org/2000/svg">
<path d="M21.0001 25.1998C23.3197 25.1998 25.2001 23.3194 25.2001 20.9998C25.2001 18.6802 23.3197 16.7998 21.0001 16.7998C18.6805 16.7998 16.8001 18.6802 16.8001 20.9998C16.8001 23.3194 18.6805 25.1998 21.0001 25.1998Z" fill="white"/>
<path fill-rule="evenodd" clip-rule="evenodd" d="M0.961426 20.9999C3.63735 12.4799 11.597 6.2998 21.0001 6.2998C30.4031 6.2998 38.3627 12.4799 41.0387 20.9997C38.3627 29.5197 30.4031 35.6998 21 35.6998C11.597 35.6998 3.6374 29.5198 0.961426 20.9999ZM29.4001 20.9998C29.4001 25.639 25.6393 29.3998 21.0001 29.3998C16.3609 29.3998 12.6001 25.639 12.6001 20.9998C12.6001 16.3606 16.3609 12.5998 21.0001 12.5998C25.6393 12.5998 29.4001 16.3606 29.4001 20.9998Z" fill="white"/>
</svg>
