<svg width="165" height="142" viewBox="0 0 165 142" fill="none" xmlns="http://www.w3.org/2000/svg">
<g filter="url(#filter0_d_38_1106)">
<rect x="40" y="6" width="65" height="42" rx="10" fill="white" fill-opacity="0.2" shape-rendering="crispEdges"/>
<path fill-rule="evenodd" clip-rule="evenodd" d="M59.5744 24.9002H63.6603C63.8476 21.6528 64.466 18.6612 65.4197 16.253C62.377 18.12 60.188 21.243 59.5744 24.9002ZM72.0002 10.2002C62.7218 10.2002 55.2002 17.7218 55.2002 27.0002C55.2002 36.2786 62.7218 43.8002 72.0002 43.8002C81.2786 43.8002 88.8002 36.2786 88.8002 27.0002C88.8002 17.7218 81.2786 10.2002 72.0002 10.2002ZM72.0002 14.4002C71.8405 14.4002 71.5127 14.4668 71.0231 14.9501C70.5244 15.4422 69.979 16.2585 69.4756 17.433C68.6594 19.3375 68.0625 21.9299 67.8682 24.9002H76.1322C75.9379 21.9299 75.341 19.3375 74.5248 17.433C74.0214 16.2585 73.476 15.4422 72.9773 14.9501C72.4877 14.4668 72.1599 14.4002 72.0002 14.4002ZM80.3401 24.9002C80.1527 21.6528 79.5344 18.6612 78.5807 16.253C81.6234 18.12 83.8124 21.243 84.426 24.9002H80.3401ZM76.1322 29.1002H67.8682C68.0625 32.0705 68.6594 34.6629 69.4756 36.5674C69.979 37.7419 70.5244 38.5582 71.0231 39.0503C71.5127 39.5336 71.8405 39.6002 72.0002 39.6002C72.1599 39.6002 72.4877 39.5336 72.9773 39.0503C73.476 38.5582 74.0214 37.7419 74.5248 36.5674C75.341 34.6629 75.9379 32.0705 76.1322 29.1002ZM78.5807 37.7474C79.5344 35.3391 80.1527 32.3476 80.3401 29.1002H84.426C83.8124 32.7574 81.6234 35.8804 78.5807 37.7474ZM65.4197 37.7474C64.466 35.3391 63.8476 32.3476 63.6603 29.1002H59.5744C60.188 32.7574 62.377 35.8804 65.4197 37.7474Z" fill="white"/>
</g>
<defs>
<filter id="filter0_d_38_1106" x="0" y="0" width="165" height="142" filterUnits="userSpaceOnUse" color-interpolation-filters="sRGB">
<feFlood flood-opacity="0" result="BackgroundImageFix"/>
<feColorMatrix in="SourceAlpha" type="matrix" values="0 0 0 0 0 0 0 0 0 0 0 0 0 0 0 0 0 0 127 0" result="hardAlpha"/>
<feOffset dx="10" dy="44"/>
<feGaussianBlur stdDeviation="25"/>
<feComposite in2="hardAlpha" operator="out"/>
<feColorMatrix type="matrix" values="0 0 0 0 0 0 0 0 0 0 0 0 0 0 0 0 0 0 0.25 0"/>
<feBlend mode="normal" in2="BackgroundImageFix" result="effect1_dropShadow_38_1106"/>
<feBlend mode="normal" in="SourceGraphic" in2="effect1_dropShadow_38_1106" result="shape"/>
</filter>
</defs>
</svg>
