<svg width="42" height="42" viewBox="0 0 42 42" fill="none" xmlns="http://www.w3.org/2000/svg">
<path fill-rule="evenodd" clip-rule="evenodd" d="M8.57441 18.9002H12.6603C12.8476 15.6528 13.466 12.6612 14.4197 10.253C11.377 12.12 9.18797 15.243 8.57441 18.9002ZM21.0002 4.2002C11.7218 4.2002 4.2002 11.7218 4.2002 21.0002C4.2002 30.2786 11.7218 37.8002 21.0002 37.8002C30.2786 37.8002 37.8002 30.2786 37.8002 21.0002C37.8002 11.7218 30.2786 4.2002 21.0002 4.2002ZM21.0002 8.4002C20.8405 8.4002 20.5127 8.46682 20.0231 8.95006C19.5244 9.44222 18.979 10.2585 18.4756 11.433C17.6594 13.3375 17.0625 15.9299 16.8682 18.9002H25.1322C24.9379 15.9299 24.341 13.3375 23.5248 11.433C23.0214 10.2585 22.476 9.44222 21.9773 8.95006C21.4877 8.46682 21.1599 8.4002 21.0002 8.4002ZM29.3401 18.9002C29.1527 15.6528 28.5344 12.6612 27.5807 10.253C30.6234 12.12 32.8124 15.243 33.426 18.9002H29.3401ZM25.1322 23.1002H16.8682C17.0625 26.0705 17.6594 28.6629 18.4756 30.5674C18.979 31.7419 19.5244 32.5582 20.0231 33.0503C20.5127 33.5336 20.8405 33.6002 21.0002 33.6002C21.1599 33.6002 21.4877 33.5336 21.9773 33.0503C22.476 32.5582 23.0214 31.7419 23.5248 30.5674C24.341 28.6629 24.9379 26.0705 25.1322 23.1002ZM27.5807 31.7474C28.5344 29.3391 29.1527 26.3476 29.3401 23.1002H33.426C32.8124 26.7574 30.6234 29.8804 27.5807 31.7474ZM14.4197 31.7474C13.466 29.3391 12.8476 26.3476 12.6603 23.1002H8.57441C9.18797 26.7574 11.377 29.8804 14.4197 31.7474Z" fill="white"/>
</svg>
