<svg width="77" height="77" viewBox="0 0 77 77" fill="none" xmlns="http://www.w3.org/2000/svg">
<g clip-path="url(#clip0_17_1613)">
<path d="M68.5023 54.5417H55.6689V32.0834H68.5023M71.7106 25.6667H52.4606C51.6097 25.6667 50.7937 26.0047 50.192 26.6064C49.5903 27.2081 49.2523 28.0241 49.2523 28.875V60.9584C49.2523 61.8093 49.5903 62.6253 50.192 63.227C50.7937 63.8287 51.6097 64.1667 52.4606 64.1667H71.7106C72.5615 64.1667 73.3776 63.8287 73.9792 63.227C74.5809 62.6253 74.9189 61.8093 74.9189 60.9584V28.875C74.9189 28.0241 74.5809 27.2081 73.9792 26.6064C73.3776 26.0047 72.5615 25.6667 71.7106 25.6667ZM10.7523 19.25H68.5023V12.8334H10.7523C9.05047 12.8334 7.41837 13.5094 6.21501 14.7128C5.01165 15.9161 4.33561 17.5482 4.33561 19.25V54.5417H-2.08105V64.1667H42.8356V54.5417H10.7523V19.25Z" fill="white"/>
</g>
<defs>
<clipPath id="clip0_17_1613">
<rect width="77" height="77" fill="white"/>
</clipPath>
</defs>
</svg>
