<svg width="65" height="64" viewBox="0 0 65 64" fill="none" xmlns="http://www.w3.org/2000/svg">
<path d="M0.899994 4.35039C0.899994 2.16887 2.66847 0.400391 4.84999 0.400391H13.3538C15.2848 0.400391 16.9327 1.79637 17.2501 3.70101L20.1704 21.2227C20.4555 22.9332 19.5916 24.6296 18.0406 25.4051L11.9255 28.4627C16.3348 39.4198 25.0806 48.1655 36.0377 52.5749L39.0953 46.4598C39.8708 44.9088 41.5672 44.0449 43.2777 44.33L60.7994 47.2503C62.704 47.5677 64.1 49.2156 64.1 51.1465V59.6504C64.1 61.8319 62.3315 63.6004 60.15 63.6004H52.25C23.8902 63.6004 0.899994 40.6102 0.899994 12.2504V4.35039Z" fill="#111827"/>
</svg>
