<svg width="42" height="42" viewBox="0 0 42 42" fill="none" xmlns="http://www.w3.org/2000/svg">
<path d="M36.6392 22.8785C37.3506 22.5228 37.8 21.7956 37.8 21.0002C37.8 20.2048 37.3506 19.4776 36.6392 19.1219L7.2392 4.42192C6.49433 4.04948 5.59975 4.1524 4.95892 4.68425C4.31807 5.2161 4.05207 6.07638 4.28085 6.87713L7.28084 17.3771C7.53842 18.2786 8.36243 18.9002 9.30004 18.9002L18.9 18.9002C20.0598 18.9002 21 19.8404 21 21.0002C21 22.16 20.0598 23.1002 18.9 23.1002L9.30005 23.1002C8.36245 23.1002 7.53843 23.7217 7.28085 24.6233L4.28085 35.1233C4.05207 35.924 4.31807 36.7843 4.95891 37.3162C5.59975 37.848 6.49433 37.9509 7.2392 37.5785L36.6392 22.8785Z" fill="white"/>
</svg>
