<svg width="78" height="78" viewBox="0 0 78 78" fill="none" xmlns="http://www.w3.org/2000/svg">
<path d="M63.7102 26.9953C62.8875 26.7211 62.0648 26.4621 61.2422 26.2183C61.3793 25.6547 61.5012 25.091 61.623 24.5273C63.4969 15.4476 62.2629 8.15038 58.1039 5.74335C54.0973 3.44296 47.5617 5.83475 40.95 11.5933C40.2949 12.157 39.6551 12.7512 39.0457 13.3453C38.6344 12.9492 38.2078 12.5531 37.7812 12.1723C30.8496 6.01757 23.9027 3.42772 19.7438 5.84999C15.7523 8.16561 14.5641 15.0363 16.2398 23.6285C16.4074 24.4816 16.5902 25.3195 16.8035 26.1726C15.8285 26.4469 14.8687 26.7515 13.9699 27.0715C5.83476 29.8898 0 34.3383 0 38.939C0 43.6922 6.21563 48.4605 14.6707 51.3551C15.3563 51.5836 16.0418 51.8121 16.7426 52.0101C16.5141 52.9242 16.316 53.823 16.1332 54.7523C14.5336 63.2074 15.7828 69.9105 19.7742 72.2109C23.8875 74.5875 30.8039 72.15 37.5375 66.2543C38.0707 65.782 38.6039 65.2945 39.1371 64.7766C39.8074 65.4316 40.5082 66.0562 41.209 66.6656C47.7293 72.2719 54.1734 74.5418 58.1496 72.2414C62.2629 69.8648 63.6035 62.659 61.8668 53.884C61.7297 53.2137 61.5773 52.5281 61.4098 51.8273C61.8973 51.6902 62.3695 51.5379 62.8418 51.3855C71.632 48.4758 78 43.7683 78 38.939C78 34.323 71.9977 29.8441 63.7102 26.9953ZM43.098 14.0613C48.7652 9.12538 54.0516 7.19061 56.4586 8.57694C59.0332 10.0547 60.0234 16.0265 58.4086 23.8723C58.302 24.3902 58.1953 24.893 58.0582 25.3957C54.6762 24.634 51.2484 24.0855 47.8055 23.7808C45.825 20.9473 43.6617 18.2355 41.3156 15.6914C41.9098 15.1277 42.4887 14.5945 43.098 14.0613ZM25.4719 46.8457C26.2488 48.1711 27.041 49.4965 27.8789 50.7914C25.5023 50.5324 23.141 50.1515 20.8102 49.6488C21.4805 47.4551 22.3184 45.1851 23.2934 42.8695C23.9941 44.2101 24.7102 45.5355 25.4719 46.8457ZM20.8559 28.5187C23.0496 28.0312 25.3805 27.6351 27.8027 27.3305C26.9953 28.5949 26.2031 29.8898 25.4566 31.2C24.7102 32.4949 23.9789 33.8203 23.2934 35.1609C22.3336 32.891 21.5262 30.6668 20.8559 28.5187ZM25.0301 39.0152C26.0355 36.9129 27.1324 34.8562 28.2902 32.8301C29.448 30.8039 30.6973 28.8387 32.0074 26.9039C34.2926 26.7363 36.6234 26.6449 39 26.6449C41.3766 26.6449 43.7227 26.7363 45.9926 26.9039C47.2875 28.8234 48.5215 30.7887 49.6945 32.7996C50.8676 34.8105 51.9645 36.8672 53.0004 38.9543C51.9797 41.0566 50.8828 43.1285 49.7098 45.1699C48.552 47.1961 47.318 49.1613 46.023 51.1113C43.7531 51.2789 41.3918 51.3551 39 51.3551C36.6082 51.3551 34.2926 51.2789 32.0531 51.1418C30.7277 49.207 29.4785 47.2266 28.3055 45.2004C27.1324 43.1742 26.0508 41.1176 25.0301 39.0152ZM52.5434 46.8152C53.3203 45.4746 54.0516 44.1187 54.7676 42.7476C55.7426 44.9566 56.5957 47.1961 57.3422 49.4965C54.9809 50.0297 52.5891 50.441 50.182 50.7152C51.0047 49.4355 51.7816 48.1254 52.5434 46.8152ZM54.7371 35.1609C54.0211 33.8203 53.2898 32.4797 52.5281 31.1695C51.7816 29.8746 51.0047 28.5949 50.1973 27.3305C52.65 27.6351 54.9961 28.0465 57.1898 28.5492C56.4891 30.8039 55.6664 32.9976 54.7371 35.1609ZM39.0305 18.0223C40.6301 19.759 42.1383 21.5871 43.5398 23.4762C40.5234 23.3391 37.4918 23.3391 34.4754 23.4762C35.9684 21.5109 37.507 19.6828 39.0305 18.0223ZM21.3586 8.68358C23.918 7.19061 29.6004 9.32342 35.5875 14.625C35.9684 14.9601 36.3492 15.3258 36.7453 15.6914C34.384 18.2355 32.2055 20.9473 30.2098 23.7808C26.7668 24.0855 23.3543 24.6187 19.9723 25.3652C19.7742 24.5883 19.6066 23.7961 19.4391 23.0039C18.007 15.6305 18.9516 10.0699 21.3586 8.68358ZM17.6262 48.8414C16.9863 48.6586 16.3617 48.4605 15.7371 48.2473C12.4922 47.2266 8.80547 45.6117 6.13945 43.4941C4.60078 42.4277 3.56484 40.7824 3.27539 38.939C3.27539 36.1512 8.08945 32.5863 15.0363 30.164C15.9047 29.8594 16.7883 29.5851 17.6719 29.3262C18.7078 32.632 19.957 35.8769 21.4043 39.0152C19.9418 42.1992 18.6773 45.4898 17.6262 48.8414ZM35.3895 63.7711C32.8758 66.0715 29.966 67.8996 26.7973 69.1488C25.1062 69.9562 23.1563 70.0324 21.4195 69.3469C18.9973 67.9453 17.9918 62.5676 19.3629 55.3312C19.5305 54.4781 19.7133 53.625 19.9266 52.7871C23.3391 53.5183 26.782 54.0211 30.2707 54.2801C32.2816 57.1289 34.4906 59.8558 36.852 62.4152C36.3645 62.8875 35.877 63.3445 35.3895 63.7711ZM39.1219 60.0691C37.568 58.3933 36.0141 56.5348 34.5059 54.539C35.9684 54.6 37.4766 54.6305 39 54.6305C40.5691 54.6305 42.1078 54.6 43.6312 54.5238C42.2297 56.4586 40.7215 58.3019 39.1219 60.0691ZM59.0332 64.6394C58.8961 66.498 57.982 68.2348 56.5195 69.4078C54.0973 70.8094 48.9328 68.9812 43.357 64.1976C42.7172 63.6492 42.0773 63.0551 41.4223 62.4457C43.7531 59.8711 45.9012 57.1441 47.8512 54.2801C51.3398 53.9906 54.8133 53.4574 58.241 52.6805C58.3934 53.3051 58.5305 53.9297 58.6523 54.539C59.3988 57.8297 59.5207 61.2574 59.0332 64.6394ZM61.8059 48.2625C61.3793 48.3996 60.9527 48.5367 60.5109 48.6586C59.4445 45.3375 58.1344 42.0926 56.6262 38.939C58.0887 35.8312 59.3227 32.632 60.3586 29.3566C61.1508 29.5851 61.9125 29.8289 62.6438 30.0726C69.743 32.5101 74.7246 36.1359 74.7246 38.9086C74.7246 41.8945 69.4078 45.7488 61.8059 48.2625ZM39 45.9773C42.8543 45.9773 45.9773 42.8543 45.9773 39C45.9773 35.1457 42.8543 32.0226 39 32.0226C35.1457 32.0226 32.0227 35.1457 32.0227 39C32.0227 42.8543 35.1457 45.9773 39 45.9773Z" fill="white"/>
</svg>
