<svg width="79" height="78" viewBox="0 0 79 78" fill="none" xmlns="http://www.w3.org/2000/svg">
<path d="M9.65693 25.807L25.1198 68.1586C14.3034 62.918 6.85381 51.8273 6.85381 39C6.85381 34.2926 7.85928 29.8441 9.65693 25.807ZM61.1339 37.3699C61.1339 33.3633 59.7019 30.5906 58.4679 28.4273C56.8226 25.7613 55.2839 23.4914 55.2839 20.8254C55.2839 17.8395 57.5386 15.0668 60.7226 15.0668C60.8597 15.0668 60.9968 15.082 61.1491 15.0973C55.3753 9.81094 47.6972 6.58125 39.2573 6.58125C27.9382 6.58125 17.9749 12.3855 12.1706 21.191C12.9323 21.2215 13.6483 21.2367 14.2577 21.2367C17.6397 21.2367 22.8956 20.8254 22.8956 20.8254C24.6476 20.7187 24.8456 23.2934 23.1089 23.4914C23.1089 23.4914 21.3569 23.6895 19.4069 23.7961L31.2136 58.8961L38.3128 37.6289L33.2702 23.7961C31.5183 23.6895 29.8729 23.4914 29.8729 23.4914C28.121 23.3848 28.3343 20.7187 30.071 20.8254C30.071 20.8254 35.4183 21.2367 38.6022 21.2367C41.9843 21.2367 47.2401 20.8254 47.2401 20.8254C48.9921 20.7187 49.1901 23.2934 47.4534 23.4914C47.4534 23.4914 45.7015 23.6895 43.7515 23.7961L55.4667 58.6371L58.6964 47.8359C60.0675 43.357 61.1339 40.1426 61.1339 37.3699ZM39.821 41.8336L30.1015 70.0934C33.0112 70.9465 36.0733 71.4187 39.2573 71.4187C43.0354 71.4187 46.646 70.7637 50.0128 69.5754C49.9214 69.4383 49.8452 69.2859 49.7843 69.1336L39.821 41.8336ZM67.6999 23.4457C67.837 24.4816 67.9132 25.5785 67.9132 26.782C67.9132 30.0727 67.3038 33.7594 65.4452 38.3906L55.5429 67.016C65.1862 61.3945 71.6608 50.959 71.6608 39C71.6608 33.3633 70.2288 28.0617 67.6999 23.4457ZM77.0386 39C77.0386 59.8406 60.0827 76.7812 39.2573 76.7812C18.4167 76.7812 1.47607 59.8254 1.47607 39C1.47607 18.1594 18.4167 1.21875 39.2573 1.21875C60.0827 1.21875 77.0386 18.1594 77.0386 39ZM75.3019 39C75.3019 19.1191 59.1229 2.95547 39.2573 2.95547C19.3765 2.95547 3.21279 19.1191 3.21279 39C3.21279 58.8809 19.3917 75.0445 39.2573 75.0445C59.1382 75.0445 75.3019 58.8809 75.3019 39Z" fill="white"/>
</svg>
