<svg width="78" height="78" viewBox="0 0 78 78" fill="none" xmlns="http://www.w3.org/2000/svg">
<path d="M65.1858 4.875H12.0715C8.07281 4.875 4.82861 8.15039 4.82861 12.1875V65.8125C4.82861 69.8496 8.07281 73.125 12.0715 73.125H65.1858C69.1844 73.125 72.4286 69.8496 72.4286 65.8125V12.1875C72.4286 8.15039 69.1844 4.875 65.1858 4.875ZM41.6163 58.1039C41.6163 64.7461 37.7534 67.7777 32.1251 67.7777C27.04 67.7777 24.0976 65.127 22.5887 61.9125L27.7643 58.759C28.7602 60.5414 29.6656 62.0496 31.8535 62.0496C33.9358 62.0496 35.2637 61.227 35.2637 58.0125V36.2121H41.6163V58.1039ZM56.6452 67.7777C50.7453 67.7777 46.9277 64.9441 45.0717 61.227L50.2474 58.2105C51.6054 60.45 53.3859 62.1105 56.5094 62.1105C59.135 62.1105 60.825 60.7852 60.825 58.9418C60.825 56.748 59.1048 55.9711 56.1925 54.6762L54.6082 53.9906C50.021 52.0254 46.9881 49.5422 46.9881 44.3168C46.9881 39.5027 50.6246 35.8465 56.2831 35.8465C60.327 35.8465 63.2241 37.2633 65.3065 40.9805L60.3572 44.1797C59.2708 42.2145 58.0938 41.4375 56.268 41.4375C54.412 41.4375 53.235 42.6258 53.235 44.1797C53.235 46.0992 54.412 46.8762 57.1432 48.0797L58.7275 48.7652C64.1295 51.0961 67.1625 53.4879 67.1625 58.8504C67.1625 64.609 62.6658 67.7777 56.6452 67.7777Z" fill="white"/>
</svg>
